<svg width="61" height="31" viewBox="0 0 61 31" fill="none" xmlns="http://www.w3.org/2000/svg">
<g clip-path="url(#clip0_428_8678)">
<path d="M38.1351 1.85035C37.2248 0.672079 35.8573 0 34.3749 0H25.9548C23.3387 0 21.2119 2.12683 21.2119 4.74284V13.1651C21.2119 14.6454 21.884 16.0151 23.0559 16.919C23.058 16.919 23.0601 16.9211 23.0623 16.9232C23.8853 17.557 24.9126 17.9058 25.9548 17.9058H34.377C36.9909 17.9058 39.1199 15.779 39.1199 13.163V4.74284C39.1199 3.70069 38.7711 2.67556 38.1373 1.85035H38.1351ZM24.3405 13.163V4.74284C24.3405 3.8517 25.0615 3.1307 25.9526 3.1307H34.3749C34.896 3.1307 35.3596 3.37741 35.6552 3.76024L24.97 14.4455C24.5872 14.1498 24.3405 13.6862 24.3405 13.1651V13.163Z" fill="#02C003"/>
<path d="M2.12448 30.4451C1.47117 30.4451 0.954174 30.2683 0.572259 29.9146C0.190343 29.5609 0 29.0808 0 28.4754C0 27.8221 0.225956 27.321 0.679097 26.971C1.13101 26.6211 1.78309 26.4455 2.63166 26.4455H3.97757V25.9616C3.97757 25.7099 3.88915 25.5097 3.71232 25.3599C3.53548 25.2101 3.29724 25.1351 2.99883 25.1351C2.72376 25.1351 2.49534 25.1978 2.31482 25.3243C2.18465 25.4151 2.0901 25.5306 2.03361 25.6706C1.99063 25.7749 1.88993 25.8437 1.77818 25.8437H0.602959C0.424896 25.8437 0.291042 25.6779 0.332794 25.506C0.454369 25.0099 0.719622 24.6059 1.12978 24.2915C1.62959 23.9096 2.27307 23.7192 3.05901 23.7192C3.88547 23.7192 4.54 23.9219 5.02385 24.3271C5.50769 24.7324 5.74961 25.2776 5.74961 25.9616V30.0546C5.74961 30.2057 5.62681 30.3285 5.47576 30.3285H4.31282C4.16177 30.3285 4.03897 30.2057 4.03897 30.0546V29.2662H3.7553L4.05002 28.8536C4.05002 29.3411 3.87442 29.7292 3.52443 30.0165C3.17444 30.3039 2.70779 30.4476 2.12571 30.4476L2.12448 30.4451ZM2.78516 29.1471C3.13146 29.1471 3.41636 29.055 3.64109 28.8696C3.86582 28.6854 3.97757 28.4434 3.97757 28.1438V27.4475H2.66727C2.39956 27.4475 2.18343 27.5237 2.01764 27.6772C1.85186 27.8307 1.76958 28.0333 1.76958 28.285C1.76958 28.5527 1.86046 28.7627 2.04098 28.9162C2.2215 29.0697 2.46956 29.1459 2.78393 29.1459L2.78516 29.1471Z" fill="#00D800"/>
<path d="M8.22162 30.1369L6.27643 24.1933C6.21871 24.0177 6.35011 23.8359 6.53554 23.8359H7.78567C7.90602 23.8359 8.01286 23.9145 8.04601 24.03L9.07387 27.4819C9.1365 27.7018 9.19913 27.9425 9.26299 28.2016C9.32561 28.4607 9.37351 28.6694 9.40421 28.8266C9.4435 28.6694 9.49263 28.4607 9.55157 28.2016C9.61052 27.9425 9.66701 27.7054 9.72227 27.493L10.7366 24.0386C10.7722 23.917 10.8827 23.8347 11.0092 23.8347H12.2115C12.4043 23.8347 12.5418 24.0226 12.4816 24.2068L10.5635 30.1345C10.5266 30.2487 10.4198 30.3261 10.3007 30.3261H8.48319C8.36407 30.3261 8.25723 30.2487 8.22039 30.1357L8.22162 30.1369Z" fill="#00D800"/>
<path d="M13.2612 24.1133V25.151C13.2612 25.3045 13.3853 25.4286 13.5388 25.4286H13.8937V30.0484C13.8937 30.2019 14.0177 30.3259 14.1712 30.3259H15.2691C15.4226 30.3259 15.5466 30.2019 15.5466 30.0484V24.1133C15.5466 23.9598 15.4226 23.8358 15.2691 23.8358H13.5388C13.3853 23.8358 13.2612 23.9598 13.2612 24.1133Z" fill="#00D800"/>
<path d="M18.6352 30.4451C17.9819 30.4451 17.4587 30.2167 17.0658 29.7611C16.6728 29.3055 16.4751 28.6878 16.4751 27.908V26.2563C16.4751 25.4851 16.6716 24.8699 17.0658 24.4094C17.4587 23.9489 17.9819 23.7192 18.6352 23.7192C19.1706 23.7192 19.5906 23.8752 19.8976 24.1859C20.2046 24.4966 20.3581 24.9313 20.3581 25.49L19.9455 25.0774H20.3581L20.2992 23.4847V21.9902C20.2992 21.8367 20.4232 21.7126 20.5767 21.7126H21.7924C21.9459 21.7126 22.07 21.8367 22.07 21.9902V30.0448C22.07 30.2007 21.9435 30.3285 21.7863 30.3285H20.6418C20.4858 30.3285 20.3581 30.202 20.3581 30.0448V29.0894H19.9455L20.3581 28.6768C20.3581 29.2355 20.2046 29.6702 19.8976 29.9809C19.5906 30.2916 19.1694 30.4476 18.6352 30.4476V30.4451ZM19.2725 28.9113C19.5955 28.9113 19.8473 28.8192 20.0278 28.6338C20.2083 28.4496 20.2992 28.1868 20.2992 27.8491V26.3153C20.2992 25.9776 20.2083 25.716 20.0278 25.5306C19.8473 25.3464 19.5955 25.253 19.2725 25.253C18.9496 25.253 18.688 25.3451 18.5112 25.5306C18.3343 25.716 18.2459 25.9776 18.2459 26.3153V27.8491C18.2459 28.188 18.3343 28.4496 18.5112 28.6338C18.688 28.8192 18.9422 28.9113 19.2725 28.9113Z" fill="#00D800"/>
<path d="M25.7396 30.4451C25.1649 30.4451 24.6639 30.3371 24.2353 30.1209C23.8067 29.9048 23.4764 29.6015 23.2443 29.2122C23.0122 28.8229 22.8955 28.3685 22.8955 27.8491V26.3153C22.8955 25.7958 23.0109 25.3415 23.2443 24.9522C23.4764 24.5629 23.8067 24.2596 24.2353 24.0434C24.6639 23.8273 25.1661 23.7192 25.7396 23.7192C26.3131 23.7192 26.8117 23.8273 27.2329 24.0434C27.6541 24.2596 27.9808 24.5629 28.2129 24.9522C28.4449 25.3415 28.5616 25.7958 28.5616 26.3153V27.2154C28.5616 27.3702 28.4364 27.4954 28.2816 27.4954H24.5853V27.8491C24.5853 28.258 24.6835 28.5675 24.88 28.775C25.0765 28.9838 25.3712 29.0882 25.7654 29.0882C26.0405 29.0882 26.2628 29.0415 26.4322 28.9469C26.555 28.8782 26.6471 28.7922 26.7097 28.6866C26.7576 28.6055 26.8485 28.5577 26.9431 28.5577H28.1158C28.3172 28.5577 28.4511 28.7652 28.3688 28.9494C28.1957 29.3387 27.9194 29.6641 27.5411 29.9269C27.0413 30.2732 26.442 30.4464 25.7408 30.4464L25.7396 30.4451ZM26.8718 26.5867V26.2919C26.8718 25.8904 26.7797 25.5834 26.5943 25.3709C26.4089 25.1585 26.124 25.0529 25.7384 25.0529C25.3528 25.0529 25.0642 25.1634 24.8714 25.3832C24.6786 25.603 24.5828 25.9137 24.5828 26.3153V26.4921L26.9897 26.4688L26.8718 26.5867Z" fill="#00D800"/>
<path d="M30.8208 30.1308L28.883 24.208C28.8228 24.025 28.9592 23.8372 29.152 23.8372H30.38C30.5052 23.8372 30.6158 23.9194 30.6514 24.0398L31.6768 27.4844C31.7394 27.7042 31.802 27.9449 31.8659 28.204C31.9285 28.4631 31.9764 28.6719 32.0071 28.8291C32.0464 28.6719 32.0955 28.4631 32.1545 28.204C32.2134 27.9449 32.2699 27.7079 32.3252 27.4954L33.3395 24.041C33.3751 23.9194 33.4857 23.8372 33.6121 23.8372H34.8144C35.0072 23.8372 35.1447 24.025 35.0845 24.2092L33.1676 30.1308C33.1295 30.2487 33.0202 30.3285 32.8962 30.3285H31.0922C30.9682 30.3285 30.8589 30.2487 30.8208 30.132V30.1308Z" fill="#00D800"/>
<path d="M38.2737 30.4451C37.699 30.4451 37.1955 30.3371 36.7632 30.1209C36.331 29.9048 35.9957 29.6015 35.7599 29.2122C35.5241 28.8229 35.4062 28.3685 35.4062 27.8491V26.3153C35.4062 25.7885 35.5241 25.3316 35.7599 24.946C35.9957 24.5604 36.3297 24.2596 36.7632 24.0434C37.1955 23.8273 37.699 23.7192 38.2737 23.7192C39.1308 23.7192 39.8161 23.9354 40.3269 24.3689C40.7617 24.7373 41.0232 25.2187 41.1104 25.8142C41.1362 25.9862 41.0011 26.1397 40.8267 26.1397H39.6073C39.4784 26.1397 39.3679 26.0525 39.3322 25.9285C39.2819 25.7516 39.1861 25.6055 39.0461 25.4913C38.8533 25.3341 38.5954 25.2555 38.2737 25.2555C37.92 25.2555 37.6486 25.3464 37.4595 25.5269C37.2704 25.7074 37.1758 25.9714 37.1758 26.3177V27.8515C37.1758 28.1905 37.2704 28.452 37.4595 28.6362C37.6486 28.8217 37.92 28.9138 38.2737 28.9138C38.5967 28.9138 38.8533 28.8376 39.0461 28.6841C39.1873 28.5724 39.2819 28.425 39.3335 28.2445C39.3691 28.118 39.4808 28.0296 39.611 28.0296H40.8243C40.9987 28.0296 41.135 28.1843 41.1092 28.3575C41.0208 28.9518 40.7592 29.432 40.3257 29.8004C39.8136 30.2327 39.1296 30.45 38.2725 30.45L38.2737 30.4451Z" fill="#00D800"/>
<path d="M44.6585 30.4451C44.0838 30.4451 43.584 30.3371 43.1603 30.1209C42.7354 29.9048 42.4063 29.6015 42.1754 29.2122C41.9433 28.8229 41.8267 28.3685 41.8267 27.8491V26.3153C41.8267 25.7958 41.9421 25.3415 42.1754 24.9522C42.4075 24.5629 42.7354 24.2596 43.1603 24.0434C43.5852 23.8273 44.085 23.7192 44.6585 23.7192C45.232 23.7192 45.7416 23.8273 46.1628 24.0434C46.584 24.2596 46.9107 24.5629 47.1428 24.9522C47.3749 25.3415 47.4915 25.7958 47.4915 26.3153V27.8491C47.4915 28.3685 47.3749 28.8229 47.1428 29.2122C46.9107 29.6015 46.584 29.9048 46.1628 30.1209C45.7416 30.3371 45.2406 30.4451 44.6585 30.4451ZM44.6585 28.9113C45.0048 28.9113 45.2676 28.8192 45.4493 28.6338C45.6298 28.4496 45.7207 28.1868 45.7207 27.8491V26.3153C45.7207 25.969 45.6298 25.7062 45.4493 25.5244C45.2688 25.3439 45.0048 25.253 44.6585 25.253C44.3122 25.253 44.058 25.3439 43.8738 25.5244C43.6883 25.705 43.5962 25.969 43.5962 26.3153V27.8491C43.5962 28.188 43.6883 28.4496 43.8738 28.6338C44.058 28.8192 44.3208 28.9113 44.6585 28.9113Z" fill="#00D800"/>
<path d="M50.4052 30.4451C49.7519 30.4451 49.2288 30.2167 48.8358 29.7611C48.4428 29.3055 48.2451 28.6878 48.2451 27.908V26.2563C48.2451 25.4851 48.4416 24.8699 48.8358 24.4094C49.2288 23.9489 49.7519 23.7192 50.4052 23.7192C50.9406 23.7192 51.3606 23.8752 51.6676 24.1859C51.9746 24.4966 52.1281 24.9313 52.1281 25.49L51.7155 25.0774H52.1281L52.0692 23.4847V21.9816C52.0692 21.833 52.1895 21.7126 52.3381 21.7126H53.5711C53.7196 21.7126 53.84 21.833 53.84 21.9816V30.0485C53.84 30.2032 53.7147 30.3285 53.56 30.3285H52.4081C52.2534 30.3285 52.1281 30.2032 52.1281 30.0485V29.0894H51.7155L52.1281 28.6768C52.1281 29.2355 51.9746 29.6702 51.6676 29.9809C51.3606 30.2916 50.9394 30.4476 50.4052 30.4476V30.4451ZM51.0426 28.9113C51.3655 28.9113 51.6173 28.8192 51.7978 28.6338C51.9783 28.4496 52.0692 28.1868 52.0692 27.8491V26.3153C52.0692 25.9776 51.9783 25.716 51.7978 25.5306C51.6173 25.3464 51.3655 25.253 51.0426 25.253C50.7196 25.253 50.458 25.3451 50.2812 25.5306C50.1043 25.716 50.0159 25.9776 50.0159 26.3153V27.8491C50.0159 28.188 50.1043 28.4496 50.2812 28.6338C50.458 28.8192 50.7122 28.9113 51.0426 28.9113Z" fill="#00D800"/>
<path d="M57.5096 30.4451C56.9349 30.4451 56.4339 30.3371 56.0053 30.1209C55.5767 29.9048 55.2464 29.6015 55.0143 29.2122C54.7822 28.8229 54.6655 28.3685 54.6655 27.8491V26.3153C54.6655 25.7958 54.781 25.3415 55.0143 24.9522C55.2464 24.5629 55.5767 24.2596 56.0053 24.0434C56.4339 23.8273 56.9361 23.7192 57.5096 23.7192C58.0831 23.7192 58.5817 23.8273 59.0029 24.0434C59.4241 24.2596 59.7508 24.5629 59.9829 24.9522C60.215 25.3415 60.3316 25.7958 60.3316 26.3153V27.2179C60.3316 27.3714 60.2076 27.4954 60.0541 27.4954H56.3553V27.8491C56.3553 28.258 56.4535 28.5675 56.65 28.775C56.8465 28.9838 57.1412 29.0882 57.5354 29.0882C57.8105 29.0882 58.0328 29.0415 58.2022 28.9469C58.325 28.8782 58.4184 28.791 58.481 28.6841C58.5289 28.6031 58.6173 28.5564 58.7119 28.5564H59.8932C60.0922 28.5564 60.2223 28.7615 60.1425 28.942C59.9694 29.3338 59.6931 29.6616 59.3124 29.9244C58.8126 30.2707 58.2133 30.4439 57.5121 30.4439L57.5096 30.4451ZM58.6431 26.5867V26.2919C58.6431 25.8904 58.551 25.5834 58.3656 25.3709C58.1801 25.1585 57.8952 25.0529 57.5096 25.0529C57.124 25.0529 56.8354 25.1634 56.6426 25.3832C56.4498 25.603 56.3541 25.9137 56.3541 26.3153V26.4921L58.761 26.4688L58.6431 26.5867Z" fill="#00D800"/>
</g>
<defs>
<clipPath id="clip0_428_8678">
<rect width="60.3317" height="30.4501" fill="white"/>
</clipPath>
</defs>
</svg>
