<svg width="59" height="20" viewBox="0 0 59 20" fill="none" xmlns="http://www.w3.org/2000/svg">
<rect width="58.1421" height="20" rx="4" fill="#06B86C"/>
<path d="M13.7853 4.21471C14.3621 3.63786 15.2302 3.52972 15.9163 3.89015C16.0747 3.97337 16.2237 4.08153 16.3568 4.21471L19.5706 7.42845C19.6595 7.51734 19.7374 7.61335 19.804 7.71433C19.9038 7.86552 19.9785 8.02839 20.0284 8.19701C20.0783 8.36576 20.103 8.54036 20.103 8.71491C20.103 8.83105 20.092 8.94715 20.0698 9.06156C20.0144 9.34822 19.8899 9.62444 19.6956 9.86258L19.5706 10L16.999 12.5715L15.7133 11.2858L18.2848 8.71422L15.0711 5.50048L10.5715 10L15.0711 14.4995L16.999 12.5715L18.2848 13.8573L16.3568 15.7853C15.6468 16.4953 14.4953 16.4953 13.7853 15.7853L9.28577 11.2858C9.19687 11.1969 9.11901 11.1009 9.05237 10.9999C8.95258 10.8487 8.87784 10.6859 8.82795 10.5172C8.77811 10.3487 8.75268 10.1743 8.75268 10C8.75267 9.88363 8.76432 9.76731 8.78652 9.65266C8.8531 9.30888 9.01953 8.98047 9.28577 8.71423L13.7853 4.21471Z" fill="#13161C"/>
<path d="M22.9214 5.54492H26.0913C27.7319 5.54492 28.8745 6.67578 28.8745 8.32227C28.8745 9.97461 27.7085 11.1113 26.0503 11.1113H24.2339V14H22.9214V5.54492ZM24.2339 6.65234V10.0098H25.7397C26.8823 10.0098 27.5327 9.39453 27.5327 8.32812C27.5327 7.26172 26.8823 6.65234 25.7456 6.65234H24.2339ZM29.7175 14V5.54492H30.9831V14H29.7175ZM34.2401 13.1035C35.1249 13.1035 35.8163 12.4941 35.8163 11.6914V11.2051L34.2987 11.2988C33.5429 11.3516 33.1151 11.6855 33.1151 12.2129C33.1151 12.752 33.5604 13.1035 34.2401 13.1035ZM33.8886 14.1055C32.6815 14.1055 31.8378 13.3555 31.8378 12.248C31.8378 11.1699 32.664 10.5078 34.1288 10.4258L35.8163 10.3262V9.85156C35.8163 9.16602 35.3534 8.75586 34.58 8.75586C33.8476 8.75586 33.3905 9.10742 33.2792 9.6582H32.0839C32.1542 8.54492 33.1034 7.72461 34.6269 7.72461C36.121 7.72461 37.0761 8.51562 37.0761 9.75195V14H35.8632V12.9863H35.8339C35.4765 13.6719 34.6972 14.1055 33.8886 14.1055ZM38.4757 6.37695H39.7472V7.83594H40.919V8.83789H39.7472V12.2363C39.7472 12.7695 39.9815 13.0098 40.4972 13.0098C40.6261 13.0098 40.8312 12.998 40.9132 12.9805V13.9824C40.7726 14.0176 40.4913 14.041 40.2101 14.041C38.962 14.041 38.4757 13.5664 38.4757 12.377V8.83789H37.5792V7.83594H38.4757V6.37695ZM41.6331 14V13.1855L44.9202 8.86719V8.84375H41.6565V7.83594H46.3733V8.70312L43.1683 12.9688V12.9922H46.4085V14H41.6331ZM47.3804 14V7.83594H48.646V14H47.3804ZM48.0132 6.93359C47.6089 6.93359 47.2808 6.61133 47.2808 6.21289C47.2808 5.80859 47.6089 5.48633 48.0132 5.48633C48.4233 5.48633 48.7515 5.80859 48.7515 6.21289C48.7515 6.61133 48.4233 6.93359 48.0132 6.93359Z" fill="#13161C"/>
</svg>
