<svg width="16" height="16" viewBox="0 0 16 16" fill="none" xmlns="http://www.w3.org/2000/svg">
<path d="M13.333 0C14.8058 0 16 1.19423 16 2.66699V13.333C16 14.8058 14.8058 16 13.333 16H2.66699C1.19423 16 0 14.8058 0 13.333V2.66699C0 1.19423 1.19423 0 2.66699 0H13.333ZM4.13184 6.6582V12H5.79004V6.6582H4.13184ZM10.0098 6.5293C9.20329 6.5293 8.66303 6.97181 8.44141 7.3916H8.41895V6.6582H6.83008V12H8.48535V9.36035C8.48542 8.66017 8.63013 7.98535 9.48047 7.98535C10.331 7.98538 10.3418 8.78261 10.3418 9.40137V12H12V9.06641C12 7.6319 11.6887 6.5257 10.0098 6.5293ZM4.96094 4C4.70644 4.0001 4.46236 4.10124 4.28223 4.28125C4.10197 4.46156 4.00024 4.70679 4 4.96191C3.99988 5.15222 4.05567 5.33875 4.16113 5.49707C4.26665 5.65542 4.41718 5.77859 4.59277 5.85156C4.76842 5.92455 4.9619 5.94329 5.14844 5.90625C5.33484 5.8692 5.50616 5.77802 5.64062 5.64355C5.77516 5.50898 5.86713 5.33713 5.9043 5.15039C5.94137 4.96385 5.9222 4.77049 5.84961 4.59473C5.77688 4.41879 5.65322 4.26791 5.49512 4.16211C5.33708 4.05645 5.15097 4 4.96094 4Z" fill="#8D99B2"/>
</svg>
