<svg width="16" height="16" viewBox="0 0 16 16" fill="none" xmlns="http://www.w3.org/2000/svg">
<path d="M13.333 0C14.8058 0 16 1.19423 16 2.66699V13.333C16 14.8058 14.8058 16 13.333 16H2.66699C1.19423 16 0 14.8058 0 13.333V2.66699C0 1.19423 1.19423 0 2.66699 0H13.333ZM10.6113 6.18066C10.3068 6.17881 10.0047 6.24208 9.72559 6.36621C9.4659 6.48415 9.23265 6.65525 9.04004 6.86816C8.84373 7.08913 8.69341 7.34838 8.59766 7.62988C8.49302 7.93767 8.4405 8.26222 8.44336 8.58789C8.43814 8.91795 8.48915 9.24677 8.59277 9.55957C8.67938 9.83971 8.81855 10.1012 9.00293 10.3271C9.18922 10.5446 9.42251 10.7157 9.68359 10.8281C9.9709 10.9459 10.2792 11.0036 10.5889 10.998C11.0247 11.0119 11.4539 10.8895 11.8193 10.6475C12.1666 10.3789 12.4223 10.0058 12.5488 9.58105C12.5658 9.52519 12.5233 9.46988 12.4658 9.46973H11.6113C11.5934 9.47042 11.5755 9.47621 11.5605 9.48633C11.5455 9.49662 11.5329 9.51151 11.5254 9.52832C11.4672 9.66035 11.3753 9.77234 11.2598 9.85059C11.083 9.97739 10.8705 10.0426 10.6543 10.0361C10.5122 10.0519 10.3678 10.0358 10.2314 9.98926C10.0953 9.94271 9.9687 9.86667 9.86133 9.76562C9.66077 9.51847 9.55741 9.203 9.57227 8.88281H12.6592C12.6812 8.54683 12.6545 8.20896 12.5801 7.88086C12.5076 7.5695 12.3806 7.27491 12.207 7.01367C12.0345 6.76329 11.8078 6.55531 11.5449 6.40723C11.2573 6.25434 10.9358 6.17608 10.6113 6.18066ZM3.4668 4.66602C3.43159 4.6661 3.39699 4.68075 3.37207 4.70605C3.34724 4.73132 3.33321 4.76605 3.33301 4.80176V10.8369C3.33301 10.8727 3.34736 10.9072 3.37207 10.9326C3.397 10.958 3.43155 10.9726 3.4668 10.9727H6.17773C6.43712 10.9727 6.69578 10.9372 6.94629 10.8672C7.18594 10.7999 7.41269 10.6901 7.61426 10.542C7.81336 10.3932 7.9737 10.1961 8.08105 9.96973C8.20236 9.71211 8.26115 9.42813 8.25293 9.14258C8.26219 8.78938 8.16929 8.44092 7.98633 8.14062C7.7963 7.84596 7.50594 7.63231 7.1709 7.54297L7.19434 7.54395C7.43444 7.43544 7.64073 7.26227 7.79102 7.04297C7.9324 6.80459 8.00188 6.5292 7.99121 6.25098C8.00065 5.99669 7.95486 5.74271 7.85645 5.50879C7.77605 5.3099 7.64393 5.13651 7.47461 5.00781C7.29693 4.8768 7.09412 4.7873 6.88184 4.74707C6.63102 4.69038 6.37409 4.66277 6.11719 4.66602H3.4668ZM5.98926 8.05859C6.23939 8.05871 6.47926 8.16095 6.65625 8.34082C6.83329 8.52099 6.93349 8.76571 6.93359 9.02051C6.93353 9.27534 6.83331 9.51999 6.65625 9.7002C6.47925 9.88014 6.23945 9.98133 5.98926 9.98145H4.68848C4.66515 9.9813 4.64251 9.97185 4.62598 9.95508C4.60952 9.93814 4.59961 9.91445 4.59961 9.89062V8.14941C4.59987 8.10006 4.63999 8.05889 4.68848 8.05859H5.98926ZM10.5889 7.09863C10.8273 7.09863 11.0569 7.19474 11.2256 7.36621C11.3941 7.53777 11.4881 7.77111 11.4883 8.01367C11.4883 8.01956 11.4875 8.02578 11.4854 8.03125C11.4832 8.03672 11.4797 8.04169 11.4756 8.0459C11.4714 8.05015 11.4664 8.05437 11.4609 8.05664C11.4555 8.05882 11.4492 8.05963 11.4434 8.05957H9.64453C9.63872 8.0596 9.63233 8.05887 9.62695 8.05664C9.62165 8.05433 9.61637 8.05004 9.6123 8.0459C9.60841 8.04178 9.60466 8.03653 9.60254 8.03125C9.60049 8.02586 9.59955 8.01945 9.59961 8.01367C9.59975 7.77105 9.69469 7.53778 9.86328 7.36621C10.0319 7.1948 10.2607 7.09876 10.499 7.09863H10.5889ZM5.93359 5.68457C6.13961 5.68466 6.33763 5.76787 6.4834 5.91602C6.62911 6.06432 6.71077 6.26588 6.71094 6.47559C6.71094 6.68539 6.62909 6.88673 6.4834 7.03516C6.3376 7.18353 6.13977 7.26749 5.93359 7.26758H4.68848C4.63983 7.26727 4.59961 7.22633 4.59961 7.17676V5.77441C4.59978 5.75068 4.60949 5.72774 4.62598 5.71094C4.64252 5.69413 4.66511 5.68471 4.68848 5.68457H5.93359ZM9.52832 4.98828C9.49309 4.98836 9.45852 5.002 9.43359 5.02734C9.40882 5.05259 9.39475 5.08739 9.39453 5.12305V5.55859C9.39453 5.59426 9.40901 5.62891 9.43359 5.6543C9.45852 5.67967 9.49307 5.69425 9.52832 5.69434H11.6328C11.6504 5.69434 11.6683 5.69048 11.6846 5.68359C11.7009 5.67666 11.7161 5.66708 11.7285 5.6543C11.7409 5.64153 11.7502 5.626 11.7568 5.60938C11.7634 5.59277 11.7668 5.57453 11.7666 5.55664L11.7607 5.12207C11.7602 5.08654 11.7456 5.05231 11.7207 5.02734C11.6959 5.00262 11.6627 4.98839 11.6279 4.98828H9.52832Z" fill="#8D99B2"/>
</svg>
