<svg width="16" height="16" viewBox="0 0 16 16" fill="none" xmlns="http://www.w3.org/2000/svg">
<path d="M13.334 0C14.8066 0.000205831 16 1.19436 16 2.66699V13.333C16 14.8056 14.8066 15.9998 13.334 16H2.66699C1.19423 16 0 14.8058 0 13.333V2.66699C0 1.19423 1.19423 0 2.66699 0H13.334ZM11.5635 4.06055C11.3753 4.08855 11.0738 4.19141 10.6592 4.36816C10.2097 4.56653 9.77828 4.80016 9.37012 5.06641C9.06494 4.98398 8.60772 4.94238 7.99902 4.94238C7.4192 4.9431 6.96217 4.98465 6.62891 5.06641C5.6446 4.42351 4.8187 4.06779 4.15137 4C3.95758 4.45919 3.838 4.94379 3.79688 5.43652C3.74373 5.95486 3.74688 6.22807 3.80566 6.25586C3.26876 6.80304 3.00003 7.46693 3 8.24609C2.99509 8.70626 3.05737 9.16512 3.18457 9.60938C3.2828 9.95894 3.44073 10.2916 3.65137 10.5938C3.84312 10.8506 4.07957 11.076 4.34961 11.2598C4.58334 11.4289 4.83876 11.5699 5.10938 11.6797C5.36531 11.7761 5.63201 11.8457 5.9043 11.8857C6.12665 11.9263 6.35219 11.9541 6.57812 11.9688L7.06738 11.9775L7.45801 11.9883L8 12L8.54199 11.9883L8.93359 11.9775L9.42285 11.9688C9.64864 11.9541 9.87349 11.9262 10.0957 11.8857C10.3949 11.8375 10.6605 11.7684 10.8916 11.6797C11.1621 11.569 11.4177 11.4281 11.6523 11.2598C11.9221 11.0759 12.1572 10.8506 12.3486 10.5938C12.5594 10.2915 12.7172 9.9591 12.8154 9.60938C12.9376 9.20487 12.9992 8.75046 13 8.24609C12.9992 7.46688 12.7306 6.80307 12.1943 6.25586C12.2536 6.22931 12.2559 5.95625 12.2012 5.43652C12.1545 4.91734 12.036 4.43814 11.8457 4L11.5635 4.06055ZM7.07812 7.89551C7.44902 7.92275 7.74801 7.93651 8.02344 7.93652C8.22561 7.93722 8.60216 7.9172 9.15234 7.87598C9.70468 7.83476 10.1137 7.83479 10.3789 7.87598C10.6448 7.9153 10.8922 8.02981 11.0879 8.2041C11.4796 8.53254 11.6757 8.94266 11.6758 9.43457C11.6743 10.2837 11.3655 10.8446 10.75 11.1172C10.2115 11.3556 9.44836 11.4897 8.46094 11.5195L7.97656 11.5254C6.77411 11.5253 5.86901 11.3887 5.26172 11.1162C4.65378 10.8429 4.34963 10.2819 4.34961 9.43359C4.35112 8.92788 4.53842 8.51755 4.91211 8.20312C5.08703 8.06099 5.29771 7.96259 5.52344 7.91699C5.74721 7.86509 5.97761 7.83987 6.20801 7.84375L7.07812 7.89551ZM6.2832 8.65527C6.08059 8.65477 5.90959 8.74424 5.77051 8.92285C5.63166 9.09997 5.56141 9.18832 5.5625 9.57812C5.56324 9.83802 5.63284 10.0569 5.77051 10.2344C5.90961 10.4117 6.08055 10.5008 6.2832 10.501C6.47133 10.501 6.63469 10.4119 6.77246 10.2344C6.91096 10.0569 6.98047 9.8381 6.98047 9.57812C6.98044 9.31891 6.91094 9.10033 6.77246 8.92285C6.63547 8.74481 6.47199 8.65527 6.2832 8.65527ZM9.73926 8.65527C9.53863 8.65465 9.36724 8.74401 9.22656 8.92285C9.08776 9.09992 9.01955 9.18838 9.01953 9.57812C9.01953 9.83793 9.08825 10.0569 9.22656 10.2344C9.36576 10.4118 9.53715 10.5009 9.73926 10.501C9.9273 10.5009 10.091 10.4118 10.2295 10.2344C10.3679 10.0569 10.4365 9.83799 10.4365 9.57812C10.4365 9.31899 10.3679 9.1003 10.2295 8.92285C10.0918 8.74483 9.92798 8.65534 9.73926 8.65527Z" fill="#8D99B2"/>
</svg>
