<svg width="16" height="16" viewBox="0 0 16 16" fill="none" xmlns="http://www.w3.org/2000/svg">
<path d="M13.334 0C14.8066 0.000205831 16 1.19436 16 2.66699V13.333C16 14.8056 14.8066 15.9998 13.334 16H2.66699C1.19423 16 0 14.8058 0 13.333V2.66699C0 1.19423 1.19423 0 2.66699 0H13.334ZM8.22266 8.93262L8.17578 8.95898C8.1211 8.9857 8.06086 9 8 9C7.93922 8.99996 7.87883 8.98567 7.82422 8.95898L7.77832 8.93262L4 6.41406V10.2002L4.00195 10.2705C4.01993 10.576 4.15428 10.8633 4.37695 11.0732C4.59963 11.2832 4.89417 11.4004 5.2002 11.4004H10.7998L10.8711 11.3984C11.1764 11.3804 11.463 11.2458 11.6729 11.0234C11.8828 10.8008 12 10.5062 12 10.2002V6.41406L8.22266 8.93262ZM5.2002 5L5.12012 5.00293C4.92926 5.0157 4.74387 5.07405 4.58008 5.17285C4.41654 5.27153 4.27897 5.40774 4.17871 5.57031L8 8.11914L11.8223 5.57031C11.611 5.2277 11.2317 5 10.7998 5H5.2002Z" fill="#8D99B2"/>
</svg>
