<svg width="16" height="16" viewBox="0 0 16 16" fill="none" xmlns="http://www.w3.org/2000/svg">
<path d="M13.334 0C14.8066 0.000205831 16 1.19436 16 2.66699V13.333C16 14.8056 14.8066 15.9998 13.334 16H2.66699C1.19423 16 0 14.8058 0 13.333V2.66699C0 1.19423 1.19423 0 2.66699 0H13.334ZM6.2002 3C5.88195 3.00001 5.57659 3.1318 5.35156 3.36621C5.12659 3.60062 5 3.91854 5 4.25V11.75C5 12.0815 5.12659 12.3994 5.35156 12.6338C5.57659 12.8682 5.88195 13 6.2002 13H9.7998C10.118 13 10.4234 12.8681 10.6484 12.6338C10.8735 12.3994 11 12.0815 11 11.75V4.25C11 3.91848 10.8735 3.60063 10.6484 3.36621C10.4234 3.13186 10.118 3 9.7998 3H6.2002ZM8 10.5C8.15909 10.5 8.31229 10.5655 8.4248 10.6826C8.53733 10.7998 8.60059 10.9592 8.60059 11.125C8.60059 11.2908 8.53733 11.4502 8.4248 11.5674C8.31229 11.6845 8.15909 11.75 8 11.75C7.84111 11.7499 7.68861 11.6843 7.57617 11.5674C7.46365 11.4502 7.40039 11.2908 7.40039 11.125C7.40039 10.9592 7.46365 10.7998 7.57617 10.6826C7.68861 10.5657 7.84111 10.5001 8 10.5Z" fill="#8D99B2"/>
</svg>
