<svg width="16" height="16" viewBox="0 0 16 16" fill="none" xmlns="http://www.w3.org/2000/svg">
<path d="M13.333 0C14.8058 0 16 1.19423 16 2.66699V13.333C16 14.8058 14.8058 16 13.333 16H2.66699C1.19423 16 0 14.8058 0 13.333V2.66699C0 1.19423 1.19423 0 2.66699 0H13.333ZM8 4C6.93918 4.00002 5.92102 4.42356 5.1709 5.17676C4.42107 5.92992 4.00004 6.95163 4 8.0166C4.00009 9.38816 4.74457 10.5105 5.5293 11.3164C5.94922 11.7422 6.41005 12.1261 6.9043 12.4619L7.08594 12.584L7.17188 12.6396L7.40332 12.7822L7.58789 12.8896C7.71336 12.9616 7.85553 13 8 13C8.14442 13 8.28668 12.9615 8.41211 12.8896L8.59668 12.7822L8.74609 12.6904L8.91309 12.584L9.00195 12.5244L9.19141 12.3945C9.64957 12.0754 10.0776 11.7145 10.4697 11.3164C11.2546 10.5109 11.9999 9.38832 12 8.0166C12 6.95152 11.5781 5.92994 10.8281 5.17676C10.078 4.42365 9.06073 4.00006 8 4ZM8 6.67773C8.35336 6.6778 8.69243 6.81854 8.94238 7.06934C9.1924 7.32038 9.33297 7.66157 9.33301 8.0166C9.33294 8.37158 9.19236 8.71187 8.94238 8.96289C8.69239 9.2139 8.35353 9.3554 8 9.35547C7.82493 9.35546 7.651 9.3202 7.48926 9.25293C7.32767 9.18565 7.18034 9.0871 7.05664 8.96289C6.93299 8.83864 6.83452 8.69061 6.76758 8.52832C6.70076 8.36613 6.66605 8.19212 6.66602 8.0166C6.66603 7.84084 6.7006 7.66629 6.76758 7.50391C6.83458 7.34151 6.93285 7.19363 7.05664 7.06934C7.1804 6.94508 7.32758 6.84657 7.48926 6.7793C7.651 6.71203 7.82493 6.67775 8 6.67773Z" fill="#8D99B2"/>
</svg>
