<svg width="14" height="14" viewBox="0 0 14 14" fill="none" xmlns="http://www.w3.org/2000/svg">
<path d="M6.99927 0.566772C10.5521 0.566772 13.4325 3.44666 13.4329 6.99939C13.4329 10.5524 10.5523 13.433 6.99927 13.433C3.44653 13.4326 0.56665 10.5522 0.56665 6.99939C0.567002 3.44687 3.44675 0.567124 6.99927 0.566772ZM1.80103 7.59998C2.04665 9.7503 3.59521 11.5039 5.63794 12.0531C4.76282 10.7248 4.23189 9.19472 4.09985 7.59998H1.80103ZM9.90063 7.59998C9.76861 9.19457 9.23655 10.7239 8.36157 12.0521C10.4041 11.5029 11.9529 9.75022 12.1985 7.59998H9.90063ZM5.30298 7.59998C5.45161 9.1647 6.03969 10.6551 6.99927 11.8988C7.95913 10.655 8.54712 9.1649 8.69556 7.59998H5.30298ZM8.36157 1.94568C9.23729 3.27443 9.76859 4.80537 9.90063 6.40076H12.1985C11.9533 4.24989 10.4046 2.49497 8.36157 1.94568ZM6.99927 2.09998C6.03919 3.344 5.45049 4.8354 5.302 6.40076H8.69653C8.54824 4.83532 7.95949 3.34406 6.99927 2.09998ZM5.63794 1.94568C3.59482 2.49496 2.0463 4.2499 1.80103 6.40076H4.09985C4.23189 4.80545 4.76232 3.27435 5.63794 1.94568Z" fill="url(#paint0_linear_416_7803)"/>
<defs>
<linearGradient id="paint0_linear_416_7803" x1="0.669471" y1="12.7815" x2="13.1602" y2="11.1694" gradientUnits="userSpaceOnUse">
<stop stop-color="#06B86C"/>
<stop offset="1" stop-color="#06B6D4"/>
</linearGradient>
</defs>
</svg>
