<svg width="40" height="40" viewBox="0 0 40 40" fill="none" xmlns="http://www.w3.org/2000/svg">
<path d="M23.2832 3.23035C24.6837 3.23056 26.0272 3.78698 27.0176 4.77722C28.0081 5.7677 28.5643 7.11184 28.5645 8.51257V8.9948C28.5645 9.43663 28.9226 9.7948 29.3645 9.7948H33.1289C36.0458 9.79503 38.41 12.1601 38.4102 15.077V31.4872C38.4102 34.4042 36.0459 36.7692 33.1289 36.7694H6.87207C3.95501 36.7692 1.58984 34.4043 1.58984 31.4872V15.077C1.59 12.1601 3.95511 9.79498 6.87207 9.7948H10.6365C11.0784 9.7948 11.4365 9.43663 11.4365 8.9948V8.51257C11.4366 7.11184 11.9929 5.7677 12.9834 4.77722C13.9739 3.78688 15.318 3.23035 16.7188 3.23035H23.2832ZM28.5645 31.9694C28.5645 32.4112 28.9226 32.7694 29.3645 32.7694H33.1289C33.8368 32.7692 34.4102 32.1951 34.4102 31.4872V15.077C34.41 14.3692 33.8367 13.795 33.1289 13.7948H29.3645C28.9226 13.7948 28.5645 14.153 28.5645 14.5948V31.9694ZM15.4365 31.9694C15.4365 32.4112 15.7947 32.7694 16.2365 32.7694H23.7645C24.2063 32.7694 24.5645 32.4112 24.5645 31.9694V14.5948C24.5645 14.153 24.2063 13.7948 23.7645 13.7948H16.2365C15.7947 13.7948 15.4365 14.153 15.4365 14.5948V31.9694ZM6.87207 13.7948C6.16425 13.795 5.59 14.3692 5.58984 15.077V31.4872C5.58984 32.1951 6.16415 32.7692 6.87207 32.7694H10.6365C11.0784 32.7694 11.4365 32.4112 11.4365 31.9694V14.5948C11.4365 14.153 11.0784 13.7948 10.6365 13.7948H6.87207ZM16.7188 7.23035C16.3789 7.23035 16.0529 7.36613 15.8125 7.60632C15.5722 7.84665 15.4366 8.17271 15.4365 8.51257V8.9948C15.4365 9.43663 15.7947 9.7948 16.2365 9.7948H23.7645C24.2063 9.7948 24.5645 9.43663 24.5645 8.9948V8.51257C24.5643 8.17286 24.4296 7.84662 24.1895 7.60632C23.9492 7.36611 23.6229 7.23056 23.2832 7.23035H16.7188Z" fill="url(#paint0_linear_413_6034)"/>
<defs>
<linearGradient id="paint0_linear_413_6034" x1="2.29793" y1="34.727" x2="37.11" y2="29.7943" gradientUnits="userSpaceOnUse">
<stop stop-color="#06B86C"/>
<stop offset="1" stop-color="#06B6D4"/>
</linearGradient>
</defs>
</svg>
