<svg width="20" height="18" viewBox="0 0 20 18" fill="none" xmlns="http://www.w3.org/2000/svg">
<path d="M11.2476 0.765869C11.3954 0.215253 11.9624 -0.112146 12.5132 0.0354004C13.0639 0.183079 13.39 0.750256 13.2427 1.30103L8.97412 17.2356C8.82637 17.7864 8.25936 18.1127 7.7085 17.9651C7.15778 17.8173 6.83044 17.2513 6.97803 16.7004L11.2476 0.765869ZM13.8765 4.43481C14.2798 4.03177 14.9342 4.03158 15.3374 4.43481L19.4683 8.56567C19.8712 8.96893 19.8712 9.62337 19.4683 10.0266L15.3374 14.1575C14.9342 14.5607 14.2798 14.5605 13.8765 14.1575C13.4733 13.7542 13.4732 13.1008 13.8765 12.6975L17.2778 9.29614L13.8765 5.89575C13.4731 5.49242 13.4731 4.83814 13.8765 4.43481ZM4.43311 3.84399C4.83637 3.44108 5.4908 3.44104 5.89404 3.84399C6.29726 4.24721 6.29705 4.90158 5.89404 5.30493L2.49268 8.70532L5.89404 12.1067C6.29716 12.5099 6.29689 13.1633 5.89404 13.5667C5.49071 13.97 4.83643 13.97 4.43311 13.5667L0.302246 9.43579C-0.100815 9.03244 -0.100993 8.37809 0.302246 7.97485L4.43311 3.84399Z" fill="#14161C"/>
</svg>
