<svg width="14" height="12" viewBox="0 0 14 12" fill="none" xmlns="http://www.w3.org/2000/svg">
<path d="M8.36914 0.0170898C8.63561 0.0887406 8.79408 0.363784 8.72266 0.630371L5.77637 11.6274C5.70494 11.894 5.42968 12.0521 5.16309 11.981C4.89668 11.9093 4.73815 11.6352 4.80957 11.3687L7.75684 0.370605C7.82848 0.104199 8.10261 -0.0542344 8.36914 0.0170898ZM9.51562 2.99756C9.71088 2.80275 10.0275 2.80257 10.2227 2.99756L13.0742 5.84912C13.1678 5.94277 13.2206 6.07025 13.2207 6.20264C13.2206 6.33496 13.1677 6.46249 13.0742 6.55615L10.2227 9.40771C10.0274 9.60261 9.71076 9.60188 9.51562 9.40674C9.32072 9.21145 9.32048 8.89485 9.51562 8.69971L12.0137 6.20166L9.51562 3.70459C9.32053 3.50935 9.32051 3.19279 9.51562 2.99756ZM2.99805 2.59131C3.19332 2.39615 3.50985 2.39608 3.70508 2.59131C3.89998 2.78656 3.90012 3.10318 3.70508 3.29834L1.20703 5.79541L3.70508 8.29346C3.90001 8.48863 3.89994 8.80527 3.70508 9.00049C3.51 9.19544 3.19332 9.1961 2.99805 9.00146L0.146484 6.1499C0.0528556 6.05628 0.000158487 5.92878 0 5.79639C0 5.6639 0.0528711 5.53662 0.146484 5.44287L2.99805 2.59131Z" fill="#06B86C"/>
</svg>
