<svg width="10" height="10" viewBox="0 0 10 10" fill="none" xmlns="http://www.w3.org/2000/svg">
<g clip-path="url(#clip0_416_7629)">
<path d="M6.66699 0.33374C6.94298 0.333916 7.16699 0.557707 7.16699 0.83374V1.16675H7.91699C8.65311 1.16692 9.24982 1.76363 9.25 2.49976V8.33374C9.24975 9.0698 8.65307 9.66657 7.91699 9.66675H2.08301C1.34693 9.66657 0.750253 9.0698 0.75 8.33374V2.49976C0.750176 1.76363 1.34689 1.16692 2.08301 1.16675H2.83301V0.83374C2.83301 0.557706 3.05702 0.333916 3.33301 0.33374C3.60915 0.33374 3.83301 0.557598 3.83301 0.83374V1.16675H6.16699V0.83374C6.16699 0.557598 6.39085 0.33374 6.66699 0.33374ZM1.75 4.66675V8.33374C1.75025 8.51751 1.89922 8.66657 2.08301 8.66675H7.91699C8.10078 8.66657 8.24975 8.51751 8.25 8.33374V4.66675H1.75ZM2.08301 2.16675C1.89917 2.16692 1.75018 2.31592 1.75 2.49976V3.66675H8.25V2.49976C8.24982 2.31592 8.10083 2.16692 7.91699 2.16675H7.16699V2.50073C7.16656 2.7764 6.94272 3.00056 6.66699 3.00073C6.39111 3.00073 6.16742 2.77651 6.16699 2.50073V2.16675H3.83301V2.50073C3.83258 2.77651 3.60889 3.00073 3.33301 3.00073C3.05728 3.00056 2.83344 2.7764 2.83301 2.50073V2.16675H2.08301Z" fill="#06B86C"/>
</g>
<defs>
<clipPath id="clip0_416_7629">
<rect width="10" height="10" fill="white"/>
</clipPath>
</defs>
</svg>
