<svg width="13" height="18" viewBox="0 0 13 18" fill="none" xmlns="http://www.w3.org/2000/svg">
<path d="M6.48828 1.92578C9.008 1.92589 11.0508 3.96855 11.0508 6.48828C11.0506 7.92174 10.3885 9.1998 9.35449 10.0361L9.95508 14.5586C9.9928 14.8439 9.86349 15.1261 9.62305 15.2842C9.38241 15.4421 9.07206 15.4488 8.8252 15.3008L6.4873 13.8984L4.15039 15.3008C3.90353 15.4488 3.59314 15.4422 3.35254 15.2842C3.11216 15.1261 2.98372 14.8438 3.02148 14.5586L3.62207 10.0371C2.58765 9.20079 1.92592 7.92207 1.92578 6.48828C1.92581 3.96849 3.96849 1.92581 6.48828 1.92578ZM4.71191 13.2139L6.10156 12.3809L6.19336 12.334C6.41258 12.2403 6.66611 12.2561 6.87402 12.3809L8.2627 13.2139L7.94336 10.8115C7.48622 10.9653 6.99726 11.0508 6.48828 11.0508C5.97861 11.0508 5.48893 10.9647 5.03125 10.8105L4.71191 13.2139ZM6.48828 3.42578C4.79692 3.42581 3.42581 4.79692 3.42578 6.48828C3.42602 8.17946 4.79705 9.55075 6.48828 9.55078C7.10815 9.55074 7.68392 9.36447 8.16602 9.04785C8.16941 9.04581 8.17235 9.043 8.17578 9.04102C9.00338 8.49286 9.55063 7.55528 9.55078 6.48828C9.55075 4.79697 8.17957 3.42589 6.48828 3.42578Z" fill="#06B86C"/>
</svg>
