<svg width="24" height="24" viewBox="0 0 24 24" fill="none" xmlns="http://www.w3.org/2000/svg">
<path fill-rule="evenodd" clip-rule="evenodd" d="M19.0299 7.46995C19.1704 7.61058 19.2492 7.8012 19.2492 7.99995C19.2492 8.1987 19.1704 8.38932 19.0299 8.52995L11.0299 16.53C10.8893 16.6704 10.6987 16.7493 10.4999 16.7493C10.3012 16.7493 10.1105 16.6704 9.96991 16.53L5.46991 12.03C5.39622 11.9613 5.33712 11.8785 5.29613 11.7865C5.25514 11.6945 5.23309 11.5952 5.23132 11.4945C5.22954 11.3938 5.24807 11.2937 5.28579 11.2004C5.32351 11.107 5.37965 11.0221 5.45087 10.9509C5.52209 10.8797 5.60692 10.8235 5.70031 10.7858C5.7937 10.7481 5.89373 10.7296 5.99443 10.7314C6.09513 10.7331 6.19445 10.7552 6.28645 10.7962C6.37845 10.8372 6.46125 10.8963 6.52991 10.97L10.4999 14.9399L17.9699 7.46995C18.1105 7.3295 18.3012 7.25061 18.4999 7.25061C18.6987 7.25061 18.8893 7.3295 19.0299 7.46995Z" fill="#0AE98A"/>
</svg>
