<svg width="19" height="18" viewBox="0 0 19 18" fill="none" xmlns="http://www.w3.org/2000/svg">
<path d="M9.02246 9.83984C8.54054 8.59834 9.82454 7.40555 11.0273 7.97754L17.7988 11.1982C19.0114 11.7754 18.881 13.5417 17.5967 13.9346L15.5117 14.5723C15.3519 14.6211 15.2278 14.7482 15.1826 14.9092L14.6172 16.9258C14.2354 18.2875 12.3403 18.3797 11.8281 17.0615L9.02246 9.83984ZM15.9453 0C16.6225 2.76007e-05 17.1715 0.549454 17.1719 1.22656V4.90625C17.1719 5.58365 16.6227 6.13278 15.9453 6.13281H6.13281V15.9453C6.13281 16.6227 5.58365 17.1718 4.90625 17.1719H1.22656C0.549148 17.1719 0 16.6227 0 15.9453V1.22656C0.000291796 0.803461 0.214877 0.430225 0.541016 0.209961C0.638681 0.144019 0.746403 0.0914642 0.861328 0.0556641C0.97664 0.0197619 1.09943 2.83585e-06 1.22656 0H15.9453ZM10.6055 8.86426C10.2046 8.67365 9.77714 9.07064 9.9375 9.48438L12.7422 16.7061C12.9129 17.1454 13.5456 17.115 13.6729 16.6611L14.2383 14.6445C14.3737 14.1617 14.7451 13.7804 15.2246 13.6338L17.3096 12.9961C17.7376 12.8651 17.7812 12.2763 17.377 12.084L10.6055 8.86426ZM1.22656 15.9453H3.67969V14.7188H4.90625V13.4922H3.67969V12.2656H4.90625V11.0391H3.67969V9.8125H4.90625V8.58594H3.67969V7.35938H4.90625V6.13281H1.22656V15.9453ZM1.22656 4.90625H4.90625V1.22656H1.22656V4.90625ZM6.13281 4.90625H7.35938V3.67969H8.58594V4.90625H9.8125V3.67969H11.0391V4.90625H12.2656V3.67969H13.4922V4.90625H14.7197V3.67969H15.9453V1.22656H6.13281V4.90625Z" fill="#1D5DBD"/>
</svg>
