<svg width="14" height="18" viewBox="0 0 14 18" fill="none" xmlns="http://www.w3.org/2000/svg">
<path d="M6.5625 2C9.08221 2.00011 11.125 4.04277 11.125 6.5625C11.1249 7.99596 10.4627 9.27402 9.42871 10.1104L10.0293 14.6328C10.067 14.9181 9.9377 15.2003 9.69727 15.3584C9.45663 15.5164 9.14628 15.523 8.89941 15.375L6.56152 13.9727L4.22461 15.375C3.97775 15.523 3.66736 15.5164 3.42676 15.3584C3.18638 15.2003 3.05794 14.918 3.0957 14.6328L3.69629 10.1113C2.66187 9.27501 2.00014 7.99629 2 6.5625C2.00003 4.04271 4.04271 2.00003 6.5625 2ZM4.78613 13.2881L6.17578 12.4551L6.26758 12.4082C6.4868 12.3145 6.74032 12.3303 6.94824 12.4551L8.33691 13.2881L8.01758 10.8857C7.56044 11.0395 7.07148 11.125 6.5625 11.125C6.05283 11.125 5.56315 11.039 5.10547 10.8848L4.78613 13.2881ZM6.5625 3.5C4.87114 3.50003 3.50003 4.87114 3.5 6.5625C3.50024 8.25368 4.87127 9.62497 6.5625 9.625C7.18237 9.62496 7.75814 9.43869 8.24023 9.12207C8.24363 9.12003 8.24657 9.11722 8.25 9.11523C9.0776 8.56708 9.62485 7.62949 9.625 6.5625C9.62497 4.87119 8.25379 3.50011 6.5625 3.5Z" fill="#2776EC"/>
</svg>
