<svg width="14" height="10" viewBox="0 0 14 10" fill="none" xmlns="http://www.w3.org/2000/svg">
<g clip-path="url(#clip0_416_7815)">
<mask id="mask0_416_7815" style="mask-type:alpha" maskUnits="userSpaceOnUse" x="0" y="0" width="14" height="10">
<path d="M12.6667 0H1.33333C0.596954 0 0 0.596954 0 1.33333V8.66667C0 9.40305 0.596954 10 1.33333 10H12.6667C13.403 10 14 9.40305 14 8.66667V1.33333C14 0.596954 13.403 0 12.6667 0Z" fill="white"/>
</mask>
<g mask="url(#mask0_416_7815)">
<path d="M12.6667 0H1.33333C0.596954 0 0 0.596954 0 1.33333V8.66667C0 9.40305 0.596954 10 1.33333 10H12.6667C13.403 10 14 9.40305 14 8.66667V1.33333C14 0.596954 13.403 0 12.6667 0Z" fill="white"/>
<path fill-rule="evenodd" clip-rule="evenodd" d="M0 0H6V4.66667H0V0Z" fill="#444379"/>
<path fill-rule="evenodd" clip-rule="evenodd" d="M0.666748 0.666748V1.33341H1.33341V0.666748H0.666748ZM2.00008 0.666748V1.33341H2.66675V0.666748H2.00008ZM3.33341 0.666748V1.33341H4.00008V0.666748H3.33341ZM4.66675 0.666748V1.33341H5.33341V0.666748H4.66675ZM4.00008 1.33341V2.00008H4.66675V1.33341H4.00008ZM2.66675 1.33341V2.00008H3.33341V1.33341H2.66675ZM1.33341 1.33341V2.00008H2.00008V1.33341H1.33341ZM0.666748 2.00008V2.66675H1.33341V2.00008H0.666748ZM2.00008 2.00008V2.66675H2.66675V2.00008H2.00008ZM3.33341 2.00008V2.66675H4.00008V2.00008H3.33341ZM4.66675 2.00008V2.66675H5.33341V2.00008H4.66675ZM0.666748 3.33341V4.00008H1.33341V3.33341H0.666748ZM2.00008 3.33341V4.00008H2.66675V3.33341H2.00008ZM3.33341 3.33341V4.00008H4.00008V3.33341H3.33341ZM4.66675 3.33341V4.00008H5.33341V3.33341H4.66675ZM4.00008 2.66675V3.33341H4.66675V2.66675H4.00008ZM2.66675 2.66675V3.33341H3.33341V2.66675H2.66675ZM1.33341 2.66675V3.33341H2.00008V2.66675H1.33341Z" fill="#A7B6E7"/>
<path fill-rule="evenodd" clip-rule="evenodd" d="M6 0V0.666667H14V0H6ZM6 1.33333V2H14V1.33333H6ZM6 2.66667V3.33333H14V2.66667H6ZM6 4V4.66667H14V4H6ZM0 5.33333V6H14V5.33333H0ZM0 6.66667V7.33333H14V6.66667H0ZM0 8V8.66667H14V8H0ZM0 9.33333V10H14V9.33333H0Z" fill="#ED4C49"/>
<path d="M12.6666 0.333252H1.33325C0.780967 0.333252 0.333252 0.780967 0.333252 1.33325V8.66658C0.333252 9.21887 0.780967 9.66658 1.33325 9.66658H12.6666C13.2189 9.66658 13.6666 9.21887 13.6666 8.66658V1.33325C13.6666 0.780967 13.2189 0.333252 12.6666 0.333252Z" stroke="black" stroke-opacity="0.1"/>
</g>
</g>
<defs>
<clipPath id="clip0_416_7815">
<rect width="14" height="10" fill="white"/>
</clipPath>
</defs>
</svg>
